<?xml version="1.0" encoding="UTF-8"?>
<svg id="_レイヤー_1" data-name="レイヤー 1" xmlns="http://www.w3.org/2000/svg" viewBox="0 0 838.31 240.4">
  <defs>
    <style>
      .cls-1 {
        fill: #cc9432;
      }

      .cls-1, .cls-2, .cls-3, .cls-4 {
        stroke-width: 0px;
      }

      .cls-2 {
        fill: #e83828;
        opacity: .7;
      }

      .cls-3 {
        fill: #123218;
      }

      .cls-4 {
        fill: #fff;
      }
    </style>
  </defs>
  <g>
    <g>
      <ellipse class="cls-2" cx="122.73" cy="121.55" rx="120.29" ry="59.55"/>
      <ellipse class="cls-2" cx="122.73" cy="121.55" rx="59.55" ry="120.29"/>
      <ellipse class="cls-2" cx="122.73" cy="121.55" rx="120.29" ry="59.55" transform="translate(-50 122.39) rotate(-45)"/>
      <ellipse class="cls-2" cx="122.73" cy="121.55" rx="59.55" ry="120.29" transform="translate(-50 122.39) rotate(-45)"/>
    </g>
    <g>
      <path class="cls-4" d="m72.72,92.94c-.65,2.75-.99,5.6-.99,8.51,0,23.5,22.17,42.56,49.52,42.56s49.52-19.05,49.52-42.56c0-2.92-.34-5.76-.99-8.51h-97.06Z"/>
      <path class="cls-4" d="m153.02,95.58c-18.88,5.49-31.91,17.73-29.12,27.34,2.79,9.61,20.36,12.95,39.24,7.46,18.88-5.49,31.91-17.73,29.12-27.34-2.79-9.61-20.36-12.95-39.24-7.46Zm8.46,29.11c-12.7,3.69-24.52,1.45-26.4-5.02-1.88-6.46,6.89-14.7,19.59-18.39,12.7-3.69,24.52-1.45,26.4,5.02,1.88,6.46-6.89,14.7-19.59,18.39Z"/>
      <path class="cls-4" d="m47.31,131.92c-.05.25-.08.5-.08.76,0,9.65,33.81,17.48,75.51,17.48s75.51-7.83,75.51-17.48c0-.25-.04-.51-.08-.76H47.31Z"/>
    </g>
  </g>
  <g>
    <path class="cls-1" d="m272.86,166.95l7.44-41.69c.26-1.47.38-2.45.38-2.93,0-.66-.15-1.16-.46-1.49-.3-.33-.76-.58-1.37-.75-.61-.17-1.37-.27-2.28-.3-.91-.04-1.96-.06-3.14-.06l.29-2.54c5.76-1.69,10.13-2.54,13.11-2.54,2.21,0,3.99.46,5.35,1.38,1.36.92,2.04,2.28,2.04,4.09,0,.18-.03.55-.1,1.1,6.37-4.42,12.18-6.63,17.43-6.63,3.49,0,6.2,1.06,8.14,3.17,1.94,2.12,2.9,4.98,2.9,8.59,0,1.58-.18,3.28-.53,5.08l-4.8,26.17c-.06.29-.11.58-.14.86-.03.28-.05.54-.05.8,0,.77.16,1.38.48,1.82.32.44.79.76,1.42.97.62.2,1.4.33,2.33.39.93.05,1.98.08,3.17.08l-.19,2.54c-4.8,1.73-9.2,2.6-13.2,2.6-2.5,0-4.38-.53-5.64-1.6s-1.9-2.82-1.9-5.25c0-1.14.13-2.47.38-3.98l4.32-23.08c.35-1.91.53-3.51.53-4.8,0-2.21-.43-3.84-1.3-4.89-.86-1.05-2.11-1.57-3.75-1.57-2.5,0-5.94,1.18-10.32,3.53l-7.15,40.36-13.4.55Z"/>
    <path class="cls-1" d="m381.6,115.27c-1.18,4.49-2.38,10.23-3.6,17.23l-4.32,24.57c-.16.85-.24,1.55-.24,2.1,0,.77.14,1.39.41,1.85.27.46.7.83,1.3,1.1.59.28,1.36.45,2.3.52.94.07,2.1.11,3.48.11l-.34,2.59c-5.6,1.55-9.83,2.32-12.67,2.32-2.4,0-4.28-.62-5.64-1.85-1.36-1.23-2.04-3.01-2.04-5.33v-1.1c-5.79,5.85-9.97,8.78-12.53,8.78-4.35,0-7.97-1.92-10.85-5.77-2.88-3.85-4.32-8.73-4.32-14.66,0-9.31,2.76-17.17,8.28-23.58s12.49-9.61,20.91-9.61c3.71,0,7.71.68,12,2.04,2.37-.48,4.72-1.12,7.06-1.93l.82.61Zm-14.83,5.74c-1.73-.92-3.7-1.38-5.91-1.38-4.19,0-7.65,2.76-10.37,8.28-2.72,5.52-4.08,11.45-4.08,17.78,0,3.72.5,6.98,1.51,9.8,1.01,2.82,2.17,4.22,3.48,4.22,1.79,0,4.96-1.97,9.51-5.91l5.86-32.8Z"/>
    <path class="cls-1" d="m437.96,114.66l.82.61c-1.18,4.34-2.38,10.01-3.6,17l-4.47,24.9c-2.24,12.55-5.7,21.88-10.37,27.99-4.67,6.11-10.93,9.17-18.77,9.17-5.38,0-10.95-1.01-16.71-3.04,1.02-5.04,2.14-9.68,3.36-13.91l.67-.33c8.19,7.29,13.51,10.93,15.94,10.93,2.72,0,4.92-1.86,6.6-5.58,1.68-3.72,3.27-9.7,4.78-17.94l.91-5.19c-5.6,5.56-9.73,8.34-12.39,8.34-4.35,0-7.99-1.9-10.9-5.69-2.91-3.79-4.37-8.63-4.37-14.52,0-9.24,2.75-17.02,8.26-23.35,5.5-6.33,12.43-9.5,20.79-9.5,4.1,0,8.23.68,12.39,2.04,2.43-.52,4.78-1.16,7.06-1.93Zm-13.92,6.35c-1.79-.92-3.92-1.38-6.39-1.38-4.13,0-7.55,2.73-10.25,8.2-2.71,5.47-4.06,11.29-4.06,17.47,0,3.57.5,6.77,1.51,9.61,1.01,2.83,2.2,4.25,3.58,4.25,1.82,0,5.07-1.97,9.75-5.91l5.86-32.24Z"/>
    <path class="cls-1" d="m494.66,115.27c-1.18,4.49-2.38,10.23-3.6,17.23l-4.32,24.57c-.16.85-.24,1.55-.24,2.1,0,.77.14,1.39.41,1.85.27.46.7.83,1.3,1.1.59.28,1.36.45,2.3.52.94.07,2.1.11,3.48.11l-.34,2.59c-5.6,1.55-9.83,2.32-12.67,2.32-2.4,0-4.28-.62-5.64-1.85-1.36-1.23-2.04-3.01-2.04-5.33v-1.1c-5.79,5.85-9.97,8.78-12.53,8.78-4.35,0-7.97-1.92-10.85-5.77-2.88-3.85-4.32-8.73-4.32-14.66,0-9.31,2.76-17.17,8.28-23.58s12.49-9.61,20.91-9.61c3.71,0,7.71.68,12,2.04,2.37-.48,4.72-1.12,7.06-1.93l.82.61Zm-14.83,5.74c-1.73-.92-3.7-1.38-5.91-1.38-4.19,0-7.65,2.76-10.37,8.28-2.72,5.52-4.08,11.45-4.08,17.78,0,3.72.5,6.98,1.51,9.8,1.01,2.82,2.17,4.22,3.48,4.22,1.79,0,4.96-1.97,9.51-5.91l5.86-32.8Z"/>
    <path class="cls-1" d="m503.64,166.95l7.44-41.69c.26-1.47.38-2.45.38-2.93,0-.66-.15-1.16-.46-1.49-.3-.33-.76-.58-1.37-.75-.61-.17-1.37-.27-2.28-.3-.91-.04-1.96-.06-3.15-.06l.29-2.54c5.76-1.69,10.13-2.54,13.11-2.54,2.21,0,3.99.46,5.35,1.38,1.36.92,2.04,2.28,2.04,4.09,0,.18-.03.55-.1,1.1,6.37-4.42,12.18-6.63,17.43-6.63,3.49,0,6.2,1.06,8.14,3.17,1.94,2.12,2.9,4.98,2.9,8.59,0,1.58-.18,3.28-.53,5.08l-4.8,26.17c-.06.29-.11.58-.14.86-.03.28-.05.54-.05.8,0,.77.16,1.38.48,1.82.32.44.79.76,1.42.97.62.2,1.4.33,2.33.39.93.05,1.98.08,3.17.08l-.19,2.54c-4.8,1.73-9.2,2.6-13.2,2.6-2.5,0-4.38-.53-5.64-1.6s-1.9-2.82-1.9-5.25c0-1.14.13-2.47.38-3.98l4.32-23.08c.35-1.91.53-3.51.53-4.8,0-2.21-.43-3.84-1.3-4.89-.86-1.05-2.11-1.57-3.75-1.57-2.5,0-5.94,1.18-10.32,3.53l-7.15,40.36-13.4.55Z"/>
    <path class="cls-1" d="m590.59,114.55c6.91,0,12.43,2.07,16.56,6.21,4.13,4.14,6.19,9.71,6.19,16.7,0,8.83-2.5,16.16-7.51,21.97-5.01,5.82-11.48,8.72-19.42,8.72-7.01,0-12.55-2.07-16.64-6.21s-6.12-9.62-6.12-16.43c0-8.94,2.46-16.34,7.39-22.19,4.93-5.85,11.44-8.78,19.54-8.78Zm-.58,5.69c-3.55,0-6.5,2.51-8.83,7.54-2.34,5.02-3.49,11.03-3.46,18.03.03,5.23.85,9.31,2.45,12.26,1.6,2.95,3.87,4.42,6.82,4.42,3.65,0,6.59-2.58,8.83-7.76,2.24-5.17,3.36-11.12,3.36-17.86,0-5.23-.82-9.3-2.45-12.23-1.63-2.93-3.87-4.39-6.72-4.39Z"/>
    <path class="cls-1" d="m679.36,155.63l1.63,2.76c-5.5,6.52-11.75,9.77-18.72,9.77-5.38,0-9.82-1.92-13.32-5.77-3.5-3.85-5.26-9.08-5.26-15.71,0-9.09,2.91-16.71,8.74-22.86,5.82-6.15,12.75-9.22,20.79-9.22,4.51,0,8.79.85,12.82,2.54-1.18,5.34-2.22,10.77-3.12,16.29l-2.4.44-3.7-13.36c-.86-.29-1.84-.44-2.93-.44-4.83,0-8.74,2.4-11.71,7.21s-4.46,10.7-4.46,17.7c0,4.9.94,8.7,2.81,11.4,1.87,2.71,4.41,4.06,7.61,4.06,3.49,0,7.23-1.6,11.23-4.8Z"/>
    <path class="cls-1" d="m740.72,115.27c-1.18,4.49-2.38,10.23-3.6,17.23l-4.32,24.57c-.16.85-.24,1.55-.24,2.1,0,.77.14,1.39.41,1.85.27.46.7.83,1.3,1.1.59.28,1.36.45,2.3.52.94.07,2.1.11,3.48.11l-.34,2.59c-5.6,1.55-9.83,2.32-12.67,2.32-2.4,0-4.28-.62-5.64-1.85-1.36-1.23-2.04-3.01-2.04-5.33v-1.1c-5.79,5.85-9.97,8.78-12.53,8.78-4.35,0-7.97-1.92-10.85-5.77-2.88-3.85-4.32-8.73-4.32-14.66,0-9.31,2.76-17.17,8.28-23.58s12.49-9.61,20.91-9.61c3.71,0,7.71.68,12,2.04,2.37-.48,4.72-1.12,7.06-1.93l.82.61Zm-14.83,5.74c-1.73-.92-3.7-1.38-5.91-1.38-4.19,0-7.65,2.76-10.37,8.28-2.72,5.52-4.08,11.45-4.08,17.78,0,3.72.5,6.98,1.51,9.8,1.01,2.82,2.17,4.22,3.48,4.22,1.79,0,4.96-1.97,9.51-5.91l5.86-32.8Z"/>
    <path class="cls-1" d="m757.33,121.95l-7.11-2.15.14-2.37,7.78-.83c1.98-10.67,5.58-18.86,10.78-24.57,5.2-5.71,11.31-8.56,18.32-8.56,3.26,0,6.45.53,9.55,1.6-1.31,5.04-2.46,10.32-3.46,15.85l-2.69.5-2.54-12.42c-.64-.18-1.47-.28-2.5-.28-2.91,0-5.44,1.57-7.59,4.72s-4,9.36-5.57,18.63l-.77,4.47h12.58l-.96,5.8h-12.53l-7.39,40.75c-1.99,10.78-4.82,18.64-8.5,23.58s-8.75,7.4-15.22,7.4c-2.5,0-5.39-.39-8.69-1.16.74-4.05,1.54-7.91,2.4-11.59l.67-.22c3.65,4.82,6.35,7.23,8.11,7.23s3.3-1.47,4.51-4.42c.61-1.47,1.19-3.5,1.75-6.07.56-2.58,1.14-5.82,1.75-9.72l7.15-46.16Z"/>
    <path class="cls-1" d="m821.76,156.07l1.63,2.76c-6.11,6.15-12.9,9.22-20.36,9.22-5.83,0-10.53-1.82-14.12-5.47-3.58-3.64-5.38-8.63-5.38-14.96,0-9.39,2.91-17.24,8.74-23.58,5.83-6.33,12.88-9.5,21.17-9.5,4.61,0,8.16.97,10.66,2.9,2.5,1.93,3.75,4.74,3.75,8.42,0,4.6-2.56,8.44-7.68,11.51-5.12,3.07-12.67,4.89-22.66,5.44-.06.88-.1,1.71-.1,2.48,0,4.97.88,8.75,2.64,11.35,1.76,2.59,4.4,3.89,7.92,3.89,4.54,0,9.14-1.49,13.78-4.47Zm-23.86-17.67c11.07-1.18,16.61-5.28,16.61-12.31,0-1.95-.39-3.41-1.18-4.39-.79-.97-1.78-1.46-3-1.46-2.62,0-5.12,1.68-7.49,5.05-2.37,3.37-4.02,7.74-4.95,13.11Z"/>
  </g>
  <g>
    <path class="cls-3" d="m280.93,162.58l7.44-41.69c.26-1.47.38-2.45.38-2.93,0-.66-.15-1.16-.46-1.49-.3-.33-.76-.58-1.37-.75-.61-.17-1.37-.27-2.28-.3-.91-.04-1.96-.06-3.15-.06l.29-2.54c5.76-1.69,10.13-2.54,13.11-2.54,2.21,0,3.99.46,5.35,1.38,1.36.92,2.04,2.28,2.04,4.09,0,.18-.03.55-.1,1.1,6.37-4.42,12.18-6.63,17.43-6.63,3.49,0,6.2,1.06,8.14,3.17,1.94,2.12,2.9,4.98,2.9,8.59,0,1.58-.18,3.28-.53,5.08l-4.8,26.17c-.06.29-.11.58-.14.86-.03.28-.05.54-.05.8,0,.77.16,1.38.48,1.82.32.44.79.76,1.42.97.62.2,1.4.33,2.33.39.93.05,1.98.08,3.17.08l-.19,2.54c-4.8,1.73-9.2,2.6-13.2,2.6-2.5,0-4.38-.53-5.64-1.6s-1.9-2.82-1.9-5.25c0-1.14.13-2.47.38-3.98l4.32-23.08c.35-1.91.53-3.51.53-4.8,0-2.21-.43-3.84-1.3-4.89-.86-1.05-2.11-1.57-3.75-1.57-2.5,0-5.94,1.18-10.32,3.53l-7.15,40.36-13.4.55Z"/>
    <path class="cls-3" d="m389.67,110.9c-1.18,4.49-2.38,10.23-3.6,17.23l-4.32,24.57c-.16.85-.24,1.55-.24,2.1,0,.77.14,1.39.41,1.85.27.46.7.83,1.3,1.1.59.28,1.36.45,2.3.52.94.07,2.1.11,3.48.11l-.34,2.59c-5.6,1.55-9.83,2.32-12.67,2.32-2.4,0-4.28-.62-5.64-1.85-1.36-1.23-2.04-3.01-2.04-5.33v-1.1c-5.79,5.85-9.97,8.78-12.53,8.78-4.35,0-7.97-1.92-10.85-5.77-2.88-3.85-4.32-8.73-4.32-14.66,0-9.31,2.76-17.17,8.28-23.58s12.49-9.61,20.91-9.61c3.71,0,7.71.68,12,2.04,2.37-.48,4.72-1.12,7.06-1.93l.82.61Zm-14.83,5.74c-1.73-.92-3.7-1.38-5.91-1.38-4.19,0-7.65,2.76-10.37,8.28s-4.08,11.45-4.08,17.78c0,3.72.5,6.98,1.51,9.8,1.01,2.82,2.17,4.22,3.48,4.22,1.79,0,4.96-1.97,9.51-5.91l5.86-32.8Z"/>
    <path class="cls-3" d="m446.04,110.3l.82.61c-1.18,4.34-2.38,10.01-3.6,17.01l-4.47,24.9c-2.24,12.55-5.7,21.88-10.37,27.99-4.67,6.11-10.93,9.17-18.77,9.17-5.38,0-10.95-1.01-16.71-3.04,1.02-5.04,2.14-9.68,3.36-13.91l.67-.33c8.19,7.29,13.51,10.93,15.94,10.93,2.72,0,4.92-1.86,6.6-5.58,1.68-3.72,3.27-9.7,4.78-17.94l.91-5.19c-5.6,5.56-9.73,8.34-12.39,8.34-4.35,0-7.99-1.9-10.9-5.69-2.91-3.79-4.37-8.63-4.37-14.52,0-9.24,2.75-17.02,8.26-23.35,5.5-6.33,12.43-9.5,20.79-9.5,4.1,0,8.23.68,12.39,2.04,2.43-.52,4.78-1.16,7.06-1.93Zm-13.92,6.35c-1.79-.92-3.92-1.38-6.39-1.38-4.13,0-7.55,2.73-10.25,8.2-2.71,5.47-4.06,11.29-4.06,17.47,0,3.57.5,6.77,1.51,9.61,1.01,2.83,2.2,4.25,3.58,4.25,1.82,0,5.07-1.97,9.75-5.91l5.86-32.24Z"/>
    <path class="cls-3" d="m502.74,110.9c-1.18,4.49-2.38,10.23-3.6,17.23l-4.32,24.57c-.16.85-.24,1.55-.24,2.1,0,.77.14,1.39.41,1.85.27.46.7.83,1.3,1.1.59.28,1.36.45,2.3.52.94.07,2.1.11,3.48.11l-.34,2.59c-5.6,1.55-9.83,2.32-12.67,2.32-2.4,0-4.28-.62-5.64-1.85-1.36-1.23-2.04-3.01-2.04-5.33v-1.1c-5.79,5.85-9.97,8.78-12.53,8.78-4.35,0-7.97-1.92-10.85-5.77-2.88-3.85-4.32-8.73-4.32-14.66,0-9.31,2.76-17.17,8.28-23.58s12.49-9.61,20.91-9.61c3.71,0,7.71.68,12,2.04,2.37-.48,4.72-1.12,7.06-1.93l.82.61Zm-14.83,5.74c-1.73-.92-3.7-1.38-5.91-1.38-4.19,0-7.65,2.76-10.37,8.28s-4.08,11.45-4.08,17.78c0,3.72.5,6.98,1.51,9.8,1.01,2.82,2.17,4.22,3.48,4.22,1.79,0,4.96-1.97,9.51-5.91l5.86-32.8Z"/>
    <path class="cls-3" d="m511.71,162.58l7.44-41.69c.26-1.47.38-2.45.38-2.93,0-.66-.15-1.16-.46-1.49-.3-.33-.76-.58-1.37-.75-.61-.17-1.37-.27-2.28-.3-.91-.04-1.96-.06-3.15-.06l.29-2.54c5.76-1.69,10.13-2.54,13.11-2.54,2.21,0,3.99.46,5.35,1.38,1.36.92,2.04,2.28,2.04,4.09,0,.18-.03.55-.1,1.1,6.37-4.42,12.18-6.63,17.43-6.63,3.49,0,6.2,1.06,8.14,3.17,1.94,2.12,2.9,4.98,2.9,8.59,0,1.58-.18,3.28-.53,5.08l-4.8,26.17c-.06.29-.11.58-.14.86-.03.28-.05.54-.05.8,0,.77.16,1.38.48,1.82.32.44.79.76,1.42.97.62.2,1.4.33,2.33.39.93.05,1.98.08,3.17.08l-.19,2.54c-4.8,1.73-9.2,2.6-13.2,2.6-2.5,0-4.38-.53-5.64-1.6s-1.9-2.82-1.9-5.25c0-1.14.13-2.47.38-3.98l4.32-23.08c.35-1.91.53-3.51.53-4.8,0-2.21-.43-3.84-1.3-4.89-.86-1.05-2.11-1.57-3.75-1.57-2.5,0-5.94,1.18-10.32,3.53l-7.15,40.36-13.4.55Z"/>
    <path class="cls-3" d="m598.66,110.19c6.91,0,12.43,2.07,16.56,6.21,4.13,4.14,6.19,9.71,6.19,16.7,0,8.83-2.5,16.16-7.51,21.97-5.01,5.82-11.48,8.72-19.42,8.72-7.01,0-12.55-2.07-16.64-6.21s-6.12-9.62-6.12-16.43c0-8.94,2.46-16.34,7.39-22.19,4.93-5.85,11.44-8.78,19.54-8.78Zm-.58,5.69c-3.55,0-6.5,2.51-8.83,7.54-2.34,5.02-3.49,11.03-3.46,18.03.03,5.23.85,9.31,2.45,12.26,1.6,2.95,3.87,4.42,6.82,4.42,3.65,0,6.59-2.58,8.83-7.76,2.24-5.17,3.36-11.12,3.36-17.86,0-5.23-.82-9.3-2.45-12.23-1.63-2.93-3.87-4.39-6.72-4.39Z"/>
    <path class="cls-3" d="m687.43,151.26l1.63,2.76c-5.5,6.52-11.75,9.77-18.72,9.77-5.38,0-9.82-1.92-13.32-5.77-3.5-3.85-5.26-9.08-5.26-15.71,0-9.09,2.91-16.71,8.74-22.86,5.82-6.15,12.75-9.22,20.79-9.22,4.51,0,8.79.85,12.82,2.54-1.18,5.34-2.22,10.77-3.12,16.29l-2.4.44-3.7-13.36c-.86-.29-1.84-.44-2.93-.44-4.83,0-8.74,2.4-11.71,7.21-2.98,4.8-4.46,10.7-4.46,17.7,0,4.9.94,8.7,2.81,11.4,1.87,2.71,4.41,4.06,7.61,4.06,3.49,0,7.23-1.6,11.23-4.8Z"/>
    <path class="cls-3" d="m748.79,110.9c-1.18,4.49-2.38,10.23-3.6,17.23l-4.32,24.57c-.16.85-.24,1.55-.24,2.1,0,.77.14,1.39.41,1.85.27.46.7.83,1.3,1.1.59.28,1.36.45,2.3.52.94.07,2.1.11,3.48.11l-.34,2.59c-5.6,1.55-9.83,2.32-12.67,2.32-2.4,0-4.28-.62-5.64-1.85-1.36-1.23-2.04-3.01-2.04-5.33v-1.1c-5.79,5.85-9.97,8.78-12.53,8.78-4.35,0-7.97-1.92-10.85-5.77-2.88-3.85-4.32-8.73-4.32-14.66,0-9.31,2.76-17.17,8.28-23.58s12.49-9.61,20.91-9.61c3.71,0,7.71.68,12,2.04,2.37-.48,4.72-1.12,7.06-1.93l.82.61Zm-14.83,5.74c-1.73-.92-3.7-1.38-5.91-1.38-4.19,0-7.65,2.76-10.37,8.28s-4.08,11.45-4.08,17.78c0,3.72.5,6.98,1.51,9.8,1.01,2.82,2.17,4.22,3.48,4.22,1.79,0,4.96-1.97,9.51-5.91l5.86-32.8Z"/>
    <path class="cls-3" d="m765.4,117.58l-7.11-2.15.14-2.37,7.78-.83c1.98-10.67,5.58-18.86,10.78-24.57,5.2-5.71,11.31-8.56,18.32-8.56,3.26,0,6.45.53,9.55,1.6-1.31,5.04-2.46,10.32-3.46,15.85l-2.69.5-2.54-12.42c-.64-.18-1.47-.28-2.5-.28-2.91,0-5.44,1.57-7.59,4.72s-4,9.36-5.57,18.63l-.77,4.47h12.58l-.96,5.8h-12.53l-7.39,40.75c-1.99,10.78-4.82,18.64-8.5,23.58s-8.75,7.4-15.22,7.4c-2.5,0-5.39-.39-8.69-1.16.74-4.05,1.54-7.91,2.4-11.59l.67-.22c3.65,4.82,6.35,7.23,8.11,7.23s3.3-1.47,4.51-4.42c.61-1.47,1.19-3.5,1.75-6.07.56-2.58,1.14-5.82,1.75-9.72l7.15-46.16Z"/>
    <path class="cls-3" d="m829.83,151.71l1.63,2.76c-6.11,6.15-12.9,9.22-20.36,9.22-5.83,0-10.53-1.82-14.12-5.47-3.58-3.64-5.38-8.63-5.38-14.96,0-9.39,2.91-17.24,8.74-23.58,5.83-6.33,12.88-9.5,21.17-9.5,4.61,0,8.16.97,10.66,2.9,2.5,1.93,3.75,4.74,3.75,8.42,0,4.6-2.56,8.44-7.68,11.51-5.12,3.07-12.67,4.89-22.66,5.44-.06.88-.1,1.71-.1,2.48,0,4.97.88,8.75,2.64,11.35,1.76,2.59,4.4,3.89,7.92,3.89,4.54,0,9.14-1.49,13.78-4.47Zm-23.86-17.67c11.07-1.18,16.61-5.28,16.61-12.31,0-1.95-.39-3.41-1.18-4.39-.79-.97-1.78-1.46-3-1.46-2.62,0-5.12,1.68-7.49,5.05-2.37,3.37-4.02,7.74-4.95,13.11Z"/>
  </g>
</svg>